<?xml version="1.0" encoding="UTF-8" standalone="no"?>
<!DOCTYPE svg PUBLIC "-//W3C//DTD SVG 1.1//EN" "http://www.w3.org/Graphics/SVG/1.1/DTD/svg11.dtd">
<svg width="100%" height="100%" viewBox="0 0 200 80" version="1.1" xmlns="http://www.w3.org/2000/svg" xmlns:xlink="http://www.w3.org/1999/xlink" xml:space="preserve" xmlns:serif="http://www.serif.com/" style="fill-rule:evenodd;clip-rule:evenodd;stroke-linecap:round;stroke-miterlimit:1.5;">
    <g>
        <g>
            <path d="M91.809,50.533C91.516,50.241 91.041,50.241 90.748,50.533L74.47,66.812C74.177,67.104 74.177,67.579 74.47,67.872L75.53,68.933C75.823,69.226 76.298,69.226 76.591,68.933L92.869,52.655C93.162,52.362 93.162,51.887 92.869,51.594L91.809,50.533Z" style="fill:rgb(179,179,179);stroke:rgb(32,31,47);stroke-width:2px;"/>
            <path d="M78.5,61.099C78.5,60.133 77.716,59.349 76.75,59.349L73.25,59.349C72.284,59.349 71.5,60.133 71.5,61.099L71.5,73.599C71.5,74.565 72.284,75.349 73.25,75.349L76.75,75.349C77.716,75.349 78.5,74.565 78.5,73.599L78.5,61.099Z" style="fill:rgb(115,115,115);"/>
            <clipPath id="_clip1">
                <path d="M78.5,61.099C78.5,60.133 77.716,59.349 76.75,59.349L73.25,59.349C72.284,59.349 71.5,60.133 71.5,61.099L71.5,73.599C71.5,74.565 72.284,75.349 73.25,75.349L76.75,75.349C77.716,75.349 78.5,74.565 78.5,73.599L78.5,61.099Z"/>
            </clipPath>
            <g clip-path="url(#_clip1)">
                <path d="M83.283,50.474L60.289,92.706L73.717,100.926L96.711,58.695L83.283,50.474Z" style="fill:rgb(81,88,95);"/>
            </g>
            <path d="M78.5,61.099C78.5,60.133 77.716,59.349 76.75,59.349L73.25,59.349C72.284,59.349 71.5,60.133 71.5,61.099L71.5,73.599C71.5,74.565 72.284,75.349 73.25,75.349L76.75,75.349C77.716,75.349 78.5,74.565 78.5,73.599L78.5,61.099Z" style="fill:none;stroke:rgb(32,31,47);stroke-width:2px;"/>
        </g>
        <g>
            <path d="M108.191,50.53C108.484,50.238 108.959,50.238 109.252,50.53L125.53,66.809C125.823,67.101 125.823,67.576 125.53,67.869L124.47,68.93C124.177,69.223 123.702,69.223 123.409,68.93L107.131,52.652C106.838,52.359 106.838,51.884 107.131,51.591L108.191,50.53Z" style="fill:rgb(179,179,179);stroke:rgb(32,31,47);stroke-width:2px;"/>
            <path d="M128.5,61.099C128.5,60.133 127.716,59.349 126.75,59.349L123.25,59.349C122.284,59.349 121.5,60.133 121.5,61.099L121.5,73.599C121.5,74.565 122.284,75.349 123.25,75.349L126.75,75.349C127.716,75.349 128.5,74.565 128.5,73.599L128.5,61.099Z" style="fill:rgb(115,115,115);"/>
            <clipPath id="_clip2">
                <path d="M128.5,61.099C128.5,60.133 127.716,59.349 126.75,59.349L123.25,59.349C122.284,59.349 121.5,60.133 121.5,61.099L121.5,73.599C121.5,74.565 122.284,75.349 123.25,75.349L126.75,75.349C127.716,75.349 128.5,74.565 128.5,73.599L128.5,61.099Z"/>
            </clipPath>
            <g clip-path="url(#_clip2)">
                <path d="M133.228,49.537L110.497,91.768L123.771,99.988L146.501,57.757L133.228,49.537Z" style="fill:rgb(81,88,95);"/>
            </g>
            <path d="M128.5,61.099C128.5,60.133 127.716,59.349 126.75,59.349L123.25,59.349C122.284,59.349 121.5,60.133 121.5,61.099L121.5,73.599C121.5,74.565 122.284,75.349 123.25,75.349L126.75,75.349C127.716,75.349 128.5,74.565 128.5,73.599L128.5,61.099Z" style="fill:none;stroke:rgb(32,31,47);stroke-width:2px;"/>
        </g>
    </g>
    <g>
        <path d="M140,40C140,39.172 139.328,38.5 138.5,38.5L61.5,38.5C60.672,38.5 60,39.172 60,40C60,40.828 60.672,41.5 61.5,41.5L138.5,41.5C139.328,41.5 140,40.828 140,40Z" style="fill:rgb(255,87,109);"/>
        <clipPath id="_clip3">
            <path d="M140,40C140,39.172 139.328,38.5 138.5,38.5L61.5,38.5C60.672,38.5 60,39.172 60,40C60,40.828 60.672,41.5 61.5,41.5L138.5,41.5C139.328,41.5 140,40.828 140,40Z"/>
        </clipPath>
        <g clip-path="url(#_clip3)">
            <path d="M189.801,97.978L218.964,29.955L87.342,44.36L58.179,112.383L189.801,97.978Z" style="fill:rgb(243,54,51);"/>
        </g>
        <path d="M140,40C140,39.172 139.328,38.5 138.5,38.5L61.5,38.5C60.672,38.5 60,39.172 60,40C60,40.828 60.672,41.5 61.5,41.5L138.5,41.5C139.328,41.5 140,40.828 140,40Z" style="fill:none;stroke:rgb(32,31,47);stroke-width:2px;stroke-linejoin:round;"/>
        <path d="M100,40C100.828,40 101.5,39.328 101.5,38.5L101.5,5.5C101.5,4.672 100.828,4 100,4C99.172,4 98.5,4.672 98.5,5.5L98.5,38.5C98.5,39.328 99.172,40 100,40Z" style="fill:rgb(255,87,109);stroke:rgb(32,31,47);stroke-width:2px;stroke-linejoin:round;"/>
    </g>
    <g>
        <path d="M170.75,50.5C171.164,50.5 171.5,50.164 171.5,49.75L171.5,11.134C171.5,10.72 171.164,10.384 170.75,10.384L169.25,10.384C168.836,10.384 168.5,10.72 168.5,11.134L168.5,49.75C168.5,50.164 168.836,50.5 169.25,50.5L170.75,50.5Z" style="fill:rgb(255,120,146);stroke:rgb(32,31,47);stroke-width:2px;"/>
        <path d="M30.75,50.5C31.164,50.5 31.5,50.164 31.5,49.75L31.5,11.134C31.5,10.72 31.164,10.384 30.75,10.384L29.25,10.384C28.836,10.384 28.5,10.72 28.5,11.134L28.5,49.75C28.5,50.164 28.836,50.5 29.25,50.5L30.75,50.5Z" style="fill:rgb(255,120,146);stroke:rgb(32,31,47);stroke-width:2px;"/>
        <path d="M97.309,37.249C97.602,36.956 97.602,36.481 97.309,36.188L70.975,9.854C70.682,9.561 70.207,9.561 69.914,9.854L68.854,10.914C68.561,11.207 68.561,11.682 68.854,11.975L95.188,38.309C95.481,38.602 95.956,38.602 96.249,38.309L97.309,37.249Z" style="fill:rgb(255,120,146);stroke:rgb(32,31,47);stroke-width:2px;"/>
        <path d="M102.691,37.249C102.398,36.956 102.398,36.481 102.691,36.188L129.025,9.854C129.318,9.561 129.793,9.561 130.086,9.854L131.146,10.914C131.439,11.207 131.439,11.682 131.146,11.975L104.812,38.309C104.519,38.602 104.044,38.602 103.751,38.309L102.691,37.249Z" style="fill:rgb(255,120,146);stroke:rgb(32,31,47);stroke-width:2px;"/>
        <path d="M195,50.5C195,49.396 194.104,48.5 193,48.5L7,48.5C5.896,48.5 5,49.396 5,50.5C5,51.604 5.896,52.5 7,52.5L193,52.5C194.104,52.5 195,51.604 195,50.5Z" style="fill:rgb(255,87,109);"/>
        <clipPath id="_clip4">
            <path d="M195,50.5C195,49.396 194.104,48.5 193,48.5L7,48.5C5.896,48.5 5,49.396 5,50.5C5,51.604 5.896,52.5 7,52.5L193,52.5C194.104,52.5 195,51.604 195,50.5Z"/>
        </clipPath>
        <g clip-path="url(#_clip4)">
            <path d="M219.43,106.711L250.912,38.688L108.82,53.093L77.338,121.116L219.43,106.711Z" style="fill:rgb(224,48,52);"/>
        </g>
        <path d="M195,50.5C195,49.396 194.104,48.5 193,48.5L7,48.5C5.896,48.5 5,49.396 5,50.5C5,51.604 5.896,52.5 7,52.5L193,52.5C194.104,52.5 195,51.604 195,50.5Z" style="fill:none;stroke:rgb(32,31,47);stroke-width:2px;"/>
        <path d="M195,9.384C195,8.28 194.104,7.384 193,7.384L7,7.384C5.896,7.384 5,8.28 5,9.384C5,10.488 5.896,11.384 7,11.384L193,11.384C194.104,11.384 195,10.488 195,9.384Z" style="fill:rgb(255,87,109);"/>
        <clipPath id="_clip5">
            <path d="M195,9.384C195,8.28 194.104,7.384 193,7.384L7,7.384C5.896,7.384 5,8.28 5,9.384C5,10.488 5.896,11.384 7,11.384L193,11.384C194.104,11.384 195,10.488 195,9.384Z"/>
        </clipPath>
        <g clip-path="url(#_clip5)">
            <path d="M180.059,68.023L211.541,0L69.449,14.405L37.966,82.428L180.059,68.023Z" style="fill:rgb(237,44,93);"/>
        </g>
        <path d="M195,9.384C195,8.28 194.104,7.384 193,7.384L7,7.384C5.896,7.384 5,8.28 5,9.384C5,10.488 5.896,11.384 7,11.384L193,11.384C194.104,11.384 195,10.488 195,9.384Z" style="fill:none;stroke:rgb(32,31,47);stroke-width:2px;"/>
    </g>
    <g>
        <path d="M110.392,36C111.446,34.176 112,32.106 112,30C112,23.377 106.623,18 100,18C93.377,18 88,23.377 88,30C88,32.106 88.554,34.176 89.608,36L110.392,36Z" style="fill:rgb(0,195,212);"/>
        <clipPath id="_clip6">
            <path d="M110.392,36C111.446,34.176 112,32.106 112,30C112,23.377 106.623,18 100,18C93.377,18 88,23.377 88,30C88,32.106 88.554,34.176 89.608,36L110.392,36Z"/>
        </clipPath>
        <g clip-path="url(#_clip6)">
            <path d="M110.392,41C111.446,39.176 112,37.106 112,35C112,28.377 106.623,23 100,23C93.377,23 88,28.377 88,35C88,37.106 88.554,39.176 89.608,41L110.392,41Z" style="fill:rgb(0,166,223);"/>
        </g>
        <path d="M110.392,36C111.446,34.176 112,32.106 112,30C112,23.377 106.623,18 100,18C93.377,18 88,23.377 88,30C88,32.106 88.554,34.176 89.608,36L110.392,36Z" style="fill:none;stroke:rgb(32,31,47);stroke-width:2px;stroke-linejoin:round;"/>
    </g>
    <g>
        <circle cx="100" cy="40" r="13.5" style="fill:rgb(255,87,109);stroke:rgb(32,31,47);stroke-width:2px;"/>
        <ellipse cx="100" cy="40" rx="11" ry="9.5" style="fill:rgb(225,0,52);"/>
    </g>
    <g>
        <g>
            <path d="M66.295,56.439C66.295,56.439 68.049,60.034 100.405,44.253C102.39,43.285 103.215,40.888 102.247,38.904C101.279,36.92 98.883,36.095 96.898,37.062C64.542,52.844 66.295,56.439 66.295,56.439Z" style="fill:rgb(255,203,0);"/>
            <clipPath id="_clip7">
                <path d="M66.295,56.439C66.295,56.439 68.049,60.034 100.405,44.253C102.39,43.285 103.215,40.888 102.247,38.904C101.279,36.92 98.883,36.095 96.898,37.062C64.542,52.844 66.295,56.439 66.295,56.439Z"/>
            </clipPath>
            <g clip-path="url(#_clip7)">
                <path d="M61.621,38.068L59.23,72.27L74.051,73.307L76.442,39.104L61.621,38.068Z" style="fill:rgb(0,150,21);stroke:rgb(32,31,47);stroke-width:1.5px;stroke-linecap:butt;stroke-linejoin:round;stroke-miterlimit:1.41421;"/>
                <path d="M80.855,35.045L78.463,69.247L81.883,69.487L84.275,35.284L80.855,35.045Z" style="fill:rgb(0,150,21);stroke:rgb(32,31,47);stroke-width:1.5px;stroke-linecap:butt;stroke-linejoin:round;stroke-miterlimit:1.41421;"/>
            </g>
            <path d="M66.295,56.439C66.295,56.439 68.049,60.034 100.405,44.253C102.39,43.285 103.215,40.888 102.247,38.904C101.279,36.92 98.883,36.095 96.898,37.062C64.542,52.844 66.295,56.439 66.295,56.439Z" style="fill:none;stroke:rgb(32,31,47);stroke-width:2px;stroke-linejoin:round;"/>
            <path d="M133.705,23.561C133.705,23.561 131.951,19.966 99.595,35.747C97.61,36.715 96.785,39.112 97.753,41.096C98.721,43.08 101.117,43.905 103.102,42.938C135.458,27.156 133.705,23.561 133.705,23.561Z" style="fill:rgb(255,203,0);"/>
            <clipPath id="_clip8">
                <path d="M133.705,23.561C133.705,23.561 131.951,19.966 99.595,35.747C97.61,36.715 96.785,39.112 97.753,41.096C98.721,43.08 101.117,43.905 103.102,42.938C135.458,27.156 133.705,23.561 133.705,23.561Z"/>
            </clipPath>
            <g clip-path="url(#_clip8)">
                <path d="M138.379,41.932L140.77,7.73L125.949,6.693L123.558,40.896L138.379,41.932Z" style="fill:rgb(0,150,21);stroke:rgb(32,31,47);stroke-width:1.5px;stroke-linecap:butt;stroke-linejoin:round;stroke-miterlimit:1.41421;"/>
                <path d="M119.145,44.955L121.537,10.753L118.117,10.513L115.725,44.716L119.145,44.955Z" style="fill:rgb(0,150,21);stroke:rgb(32,31,47);stroke-width:1.5px;stroke-linecap:butt;stroke-linejoin:round;stroke-miterlimit:1.41421;"/>
            </g>
            <path d="M133.705,23.561C133.705,23.561 131.951,19.966 99.595,35.747C97.61,36.715 96.785,39.112 97.753,41.096C98.721,43.08 101.117,43.905 103.102,42.938C135.458,27.156 133.705,23.561 133.705,23.561Z" style="fill:none;stroke:rgb(32,31,47);stroke-width:2px;stroke-linejoin:round;"/>
        </g>
        <circle cx="100" cy="40" r="7" style="fill:rgb(251,216,0);stroke:rgb(32,31,47);stroke-width:2px;stroke-linejoin:round;"/>
        <circle cx="100" cy="40" r="3" style="fill:rgb(255,189,0);stroke:rgb(32,31,47);stroke-width:2px;stroke-linejoin:round;"/>
    </g>
</svg>
